<?xml version="1.0" standalone="no"?>
<!DOCTYPE svg PUBLIC "-//W3C//DTD SVG 20010904//EN"
 "http://www.w3.org/TR/2001/REC-SVG-20010904/DTD/svg10.dtd">
<svg version="1.0" xmlns="http://www.w3.org/2000/svg"
 width="720.000000pt" height="960.000000pt" viewBox="0 0 720.000000 960.000000"
 preserveAspectRatio="xMidYMid meet">

<g transform="translate(0.000000,960.000000) scale(0.100000,-0.100000)"
fill="#000000" stroke="none">
<path d="M0 8686 l0 -914 40 5 c24 3 40 2 40 -5 0 -5 14 -12 31 -14 24 -4 39
1 63 22 23 20 64 36 153 58 67 17 145 43 174 57 84 43 124 22 149 -75 6 -25
15 -54 20 -65 28 -59 100 -249 100 -264 0 -9 4 -21 9 -27 5 -5 14 -27 21 -49
7 -22 28 -72 46 -111 19 -39 34 -79 34 -88 0 -9 4 -16 9 -16 5 0 12 -15 15
-32 3 -18 24 -80 47 -138 22 -58 45 -122 51 -142 6 -21 15 -38 20 -38 6 0 7 7
4 16 -4 11 -1 14 12 12 11 -2 25 -27 42 -74 14 -39 30 -77 36 -85 19 -24 51
-142 69 -251 3 -21 10 -38 15 -38 5 0 9 -8 9 -17 -1 -76 57 -270 69 -233 2 6
12 -2 22 -18 10 -17 28 -33 39 -37 12 -3 36 -20 53 -36 63 -57 81 -50 113 50
10 31 37 97 58 146 114 261 131 324 116 433 -14 97 -34 155 -94 262 -76 136
-95 173 -95 187 0 6 -16 58 -35 115 -44 128 -100 356 -126 508 -11 63 -24 140
-29 172 -6 31 -29 103 -51 160 -56 139 -129 347 -129 364 0 8 -18 54 -41 102
-22 48 -59 143 -81 212 -52 160 -56 170 -66 170 -5 0 -38 -46 -72 -102 -34
-57 -66 -105 -69 -108 -4 -3 -22 -30 -40 -60 -19 -30 -37 -57 -41 -60 -3 -3
-9 -12 -13 -20 -17 -38 -136 -213 -149 -218 -4 -2 -8 -8 -8 -12 0 -13 -55 -93
-79 -115 -21 -18 -22 -18 -41 1 -11 10 -33 57 -50 104 -17 46 -35 89 -40 94
-6 6 -10 21 -10 36 0 14 -7 38 -15 54 -20 37 -19 63 2 74 16 10 15 14 -12 62
-17 29 -21 180 -5 180 6 0 10 18 10 40 0 22 5 40 10 40 6 0 10 10 10 23 0 13
6 29 12 35 10 10 10 15 -1 22 -11 6 -5 17 27 48 23 22 42 49 42 59 0 11 6 25
12 31 10 10 10 15 -1 22 -12 7 -8 14 17 38 18 17 32 37 32 46 0 9 3 16 8 16 4
0 13 12 19 27 10 21 10 29 1 34 -8 5 -2 17 20 37 20 19 32 40 32 56 0 14 5 26
10 26 6 0 10 9 10 20 0 11 5 20 10 20 6 0 10 -6 10 -12 0 -7 9 2 20 20 11 17
24 32 30 32 5 0 10 9 10 20 0 20 -7 20 -320 20 l-320 0 0 -914z m1328 -1399
c2 -26 7 -34 18 -30 10 4 14 -2 14 -21 0 -14 -5 -26 -10 -26 -5 0 -9 -5 -7
-11 3 -17 -16 -20 -35 -5 -16 12 -25 37 -27 74 -1 6 -8 12 -16 12 -8 0 -15 4
-15 9 0 5 7 14 15 21 8 7 15 9 15 4 0 -4 5 -3 12 4 20 20 33 8 36 -31z m-288
-373 c0 -8 -4 -12 -10 -9 -5 3 -10 10 -10 16 0 5 5 9 10 9 6 0 10 -7 10 -16z
m374 -16 c-3 -4 -12 -8 -20 -8 -8 0 -14 4 -14 8 0 4 9 8 19 8 11 0 17 -4 15
-8z m13 -42 c14 4 25 -2 37 -21 17 -25 17 -28 0 -46 -9 -10 -20 -16 -25 -14
-8 6 -29 -57 -29 -87 0 -10 -8 -21 -17 -26 -55 -28 -135 54 -130 132 1 23 7
41 12 42 19 1 63 23 70 33 4 8 15 6 34 -4 15 -7 37 -12 48 -9z m65 -295 c7 -7
11 -28 9 -56 -1 -11 -18 -40 -39 -64 l-39 -45 -31 22 c-34 25 -57 80 -48 117
4 17 17 28 39 34 32 9 96 5 109 -8z"/>
<path d="M1450 9595 c0 -10 81 -218 125 -321 25 -57 45 -114 45 -126 0 -11 9
-35 19 -52 11 -17 31 -66 46 -109 14 -43 33 -95 42 -115 17 -39 31 -74 43
-107 19 -50 44 -114 61 -151 10 -23 41 -102 69 -175 49 -128 61 -183 46 -207
-5 -8 0 -12 14 -12 44 0 120 -53 120 -84 0 -8 4 -17 10 -21 5 -3 17 -30 26
-60 10 -30 21 -55 25 -55 4 0 10 -17 14 -37 4 -21 10 -40 14 -43 4 -3 17 -57
30 -120 12 -63 26 -117 31 -120 5 -3 10 -41 13 -85 4 -75 22 -177 48 -271 7
-25 24 -51 45 -70 20 -16 60 -53 90 -81 30 -29 61 -53 68 -53 8 0 16 -7 19
-15 4 -8 22 -21 40 -29 19 -8 38 -19 41 -25 4 -6 15 -11 25 -11 14 0 20 14 30
73 37 214 105 426 194 602 65 132 77 166 86 255 6 63 5 77 -8 87 -14 11 -14
12 2 13 14 0 17 10 17 58 0 108 -75 292 -118 292 -12 0 -42 44 -42 61 0 7 -8
31 -19 53 -10 23 -23 65 -30 95 -6 29 -31 103 -55 165 -76 192 -159 479 -212
729 l-16 77 -455 0 c-300 0 -452 -3 -448 -10 4 -6 -5 -10 -19 -10 -14 0 -26 5
-26 10 0 6 -11 10 -25 10 -14 0 -25 -2 -25 -5z m1025 -1073 c9 -20 27 -57 40
-82 12 -25 25 -70 29 -102 6 -50 5 -58 -15 -77 -28 -26 -73 -27 -91 -3 -7 10
-20 22 -28 27 -12 7 -13 6 -4 -6 7 -8 15 -46 19 -85 6 -68 6 -73 -20 -98 -32
-32 -38 -32 -70 0 -33 33 -41 55 -50 130 -4 32 -11 74 -17 92 -14 47 5 89 44
97 23 5 33 2 50 -17 l20 -23 -7 35 c-4 19 -11 44 -15 55 -5 13 -1 32 13 55 15
27 27 36 52 37 29 3 35 -1 50 -35z m220 -2 c8 -16 15 -40 15 -54 0 -13 7 -32
16 -41 18 -18 25 -138 8 -154 -5 -5 -21 -7 -35 -4 -28 5 -51 42 -70 113 -7 25
-18 52 -26 61 -20 24 -16 53 12 79 14 13 25 20 25 15 0 -5 5 -4 12 3 18 18 26
15 43 -18z m-85 -551 c0 -12 7 -19 19 -19 37 0 73 -42 78 -91 8 -69 -15 -114
-73 -141 -28 -13 -54 -35 -64 -52 -9 -16 -21 -31 -27 -33 -14 -5 -57 51 -78
101 l-16 39 40 40 c53 52 63 98 30 134 l-24 26 23 -12 c19 -10 28 -10 48 4 13
8 24 20 24 26 0 6 5 7 10 4 6 -3 10 -15 10 -26z m-140 -153 c0 -11 -19 -15
-25 -6 -3 5 1 10 9 10 9 0 16 -2 16 -4z"/>
<path d="M2385 8360 c3 -5 8 -10 11 -10 2 0 4 5 4 10 0 6 -5 10 -11 10 -5 0
-7 -4 -4 -10z"/>
<path d="M3680 9547 c0 -30 6 -67 14 -83 8 -16 17 -72 20 -124 6 -110 13 -140
32 -140 8 0 14 -9 14 -21 0 -37 37 -76 97 -100 32 -12 69 -33 82 -46 13 -13
31 -23 41 -23 16 0 89 -44 100 -60 3 -4 21 -15 40 -25 19 -10 39 -24 43 -31 4
-8 13 -14 18 -14 6 0 23 -8 37 -18 15 -10 43 -25 62 -32 19 -8 37 -16 40 -19
3 -4 16 -11 30 -17 83 -38 147 -69 160 -80 43 -34 168 -90 268 -120 149 -43
217 -70 273 -103 25 -16 55 -32 67 -35 12 -4 36 -19 52 -33 17 -14 30 -19 30
-12 0 7 3 9 7 5 12 -12 2 -88 -13 -103 -32 -32 -36 -55 -29 -151 4 -52 3 -97
-2 -101 -15 -11 -43 -60 -43 -75 0 -19 -46 -66 -65 -66 -14 0 -21 -41 -15 -93
1 -11 -8 -26 -20 -34 -12 -9 -19 -21 -16 -30 6 -14 -16 -91 -32 -117 -3 -6 -9
0 -13 14 -5 19 -7 15 -8 -20 -1 -40 -6 -51 -41 -85 -40 -39 -40 -39 -40 -117
0 -54 4 -80 13 -83 14 -6 134 -25 195 -32 23 -3 42 -10 42 -17 0 -8 -19 -11
-65 -8 -45 3 -65 1 -65 -7 0 -7 10 -11 23 -10 60 5 67 1 67 -41 0 -30 4 -40
16 -40 13 0 15 -9 12 -45 -2 -31 1 -45 9 -45 7 0 22 -19 34 -41 l21 -42 -26 7
c-14 3 -26 2 -26 -3 0 -16 -48 -18 -64 -2 -9 8 -16 10 -16 4 0 -6 -32 -14 -80
-18 -44 -4 -80 -11 -80 -15 0 -19 53 -40 102 -41 47 0 81 -5 181 -26 34 -7 36
-38 6 -77 -24 -30 -19 -47 6 -22 17 17 55 22 55 8 0 -5 -7 -17 -15 -28 -8 -10
-15 -36 -15 -57 0 -34 2 -38 20 -32 18 6 20 2 20 -49 0 -45 4 -58 20 -68 14
-9 20 -24 20 -50 0 -38 0 -38 40 -38 33 0 40 -4 40 -19 0 -19 -21 -33 -50 -35
-9 -1 -14 -9 -12 -19 2 -10 -2 -25 -9 -33 -9 -11 -8 -14 5 -14 20 0 66 -47 66
-68 0 -8 21 -37 46 -64 30 -32 44 -55 40 -65 -4 -8 -1 -22 5 -29 9 -11 6 -14
-15 -14 -27 0 -31 -6 -18 -28 5 -7 16 -10 25 -6 24 9 35 -25 14 -41 -15 -10
-12 -15 19 -46 l35 -33 -23 -18 c-19 -15 -21 -19 -8 -27 21 -14 7 -23 -36 -23
-24 0 -40 6 -46 16 -10 17 -58 22 -58 6 0 -5 12 -13 27 -16 15 -4 34 -13 41
-21 7 -7 19 -13 25 -13 7 0 21 -7 31 -15 18 -13 18 -16 4 -32 -9 -10 -32 -67
-52 -128 -21 -60 -41 -119 -45 -130 -27 -67 -72 -217 -67 -222 5 -5 56 101 56
118 0 5 4 17 9 27 15 29 51 124 51 136 0 6 11 34 25 61 13 28 25 57 25 66 0 8
9 25 20 37 11 12 20 25 20 29 0 5 9 14 20 21 17 10 20 10 20 -3 0 -9 -8 -19
-17 -22 -15 -6 -15 -7 3 -14 18 -7 17 -8 -4 -15 -22 -6 -23 -11 -18 -53 4 -26
3 -41 -2 -34 -5 9 -13 2 -24 -22 -15 -33 -14 -35 2 -35 10 0 20 9 23 20 4 16
14 20 46 20 l41 0 -7 -62 c-4 -39 -12 -68 -22 -75 -14 -11 -13 -13 7 -19 17
-5 22 -12 18 -25 -20 -64 -22 -59 33 -59 44 0 51 -3 51 -20 0 -11 -7 -20 -15
-20 -8 0 -15 -9 -15 -21 0 -11 -5 -29 -10 -40 -9 -16 -7 -19 11 -19 16 0 20 5
16 20 -3 11 -1 23 4 26 5 3 9 -14 9 -38 1 -38 2 -41 14 -25 7 9 19 17 25 17 7
0 21 10 32 23 10 12 18 17 19 10 0 -6 -7 -18 -15 -27 -9 -8 -15 -33 -15 -58 0
-31 -6 -50 -20 -64 -30 -30 -48 -44 -58 -44 -5 0 -20 -13 -34 -29 -17 -18 -40
-30 -67 -35 -22 -3 -41 -10 -41 -15 0 -14 72 0 88 16 8 7 27 20 43 28 16 9 29
20 29 25 0 6 4 10 9 10 11 0 107 58 152 93 20 15 41 27 46 27 6 0 16 7 23 15
9 11 16 13 24 5 5 -5 18 -10 28 -10 20 0 24 -15 7 -26 -6 -3 -14 -2 -18 4 -4
7 -11 4 -19 -8 -10 -17 -10 -20 5 -20 14 0 13 -4 -6 -24 -17 -18 -22 -32 -17
-49 10 -40 57 -117 72 -117 8 0 14 -4 14 -10 0 -5 -7 -10 -15 -10 -8 0 -20 -9
-27 -19 -14 -23 -38 -11 -38 18 0 9 -11 29 -25 45 -14 16 -25 32 -25 36 0 5
-7 11 -16 14 -16 6 -161 -95 -170 -119 -5 -13 44 -92 83 -134 l22 -25 -44 -30
c-25 -17 -45 -34 -45 -38 0 -5 14 -8 30 -8 17 0 30 5 30 13 0 6 18 22 40 34
45 24 45 24 28 -12 -8 -17 -19 -25 -37 -25 -19 0 -22 -3 -12 -9 11 -7 10 -10
-5 -14 -10 -2 0 -5 24 -6 l42 -1 0 -40 c0 -31 3 -38 15 -34 17 7 94 -27 95
-41 0 -6 -9 -16 -20 -23 -15 -9 -20 -23 -20 -52 0 -30 -4 -40 -16 -40 -8 0
-12 -5 -9 -10 4 -7 12 -7 25 0 44 23 50 15 50 -70 0 -64 3 -80 15 -80 11 0 15
-11 15 -39 0 -22 5 -43 10 -46 6 -3 10 -20 10 -37 0 -38 9 -31 20 14 l8 33 1
-41 c1 -22 8 -49 16 -60 17 -22 19 -12 6 34 -6 18 -7 41 -3 50 7 19 22 -39 25
-98 2 -33 0 -35 -33 -41 -28 -5 -30 -7 -9 -8 26 -1 27 -4 33 -81 7 -70 10 -80
27 -80 17 0 19 -8 19 -79 0 -67 -3 -80 -17 -84 -10 -2 -1 -3 20 -1 l37 4 0
-40 c0 -33 3 -40 20 -40 17 0 20 -7 20 -40 0 -29 4 -40 15 -40 11 0 15 -11 15
-40 0 -28 -4 -40 -15 -41 -8 -1 -21 -2 -27 -3 -7 -1 -21 -8 -30 -15 -15 -13
-16 -17 -3 -31 8 -9 15 -24 15 -34 0 -9 6 -27 14 -39 8 -12 17 -41 21 -64 6
-35 11 -42 33 -46 25 -4 24 -4 -5 -6 -28 -1 -32 3 -38 31 -12 58 -28 97 -39
91 -5 -4 -7 1 -2 12 8 23 -20 55 -48 55 -12 -1 -36 -9 -54 -18 -30 -16 -31
-19 -17 -37 8 -11 15 -28 15 -38 0 -10 7 -28 16 -42 8 -13 16 -38 16 -55 1
-18 6 -33 12 -35 45 -13 65 -14 61 -3 -3 8 4 14 20 14 27 2 33 -14 13 -35 -11
-11 -7 -12 20 -6 20 4 32 3 32 -4 0 -6 -4 -11 -10 -11 -5 0 -10 -18 -10 -40 0
-22 5 -40 10 -40 19 0 10 -20 -22 -50 -25 -22 -29 -29 -16 -30 10 0 26 -17 39
-41 19 -38 23 -41 55 -37 l34 4 0 -43 c0 -42 1 -43 33 -43 17 0 46 -4 63 -9
18 -5 37 -5 47 1 13 7 17 5 17 -7 0 -9 -4 -14 -8 -11 -11 6 -38 -11 -30 -20 8
-8 128 22 142 36 5 5 18 10 28 10 10 0 29 6 41 14 32 21 108 31 117 16 9 -15
-9 -103 -23 -112 -7 -4 2 -18 21 -36 38 -36 39 -39 10 -45 l-23 -4 23 -2 c16
-1 22 -7 22 -26 0 -14 4 -25 8 -25 5 0 19 -22 32 -50 13 -27 27 -50 32 -50 4
0 8 -18 8 -40 0 -37 7 -45 33 -41 4 0 7 -17 7 -39 0 -33 3 -40 20 -40 17 0 20
-7 20 -40 0 -29 4 -40 15 -40 18 0 21 -76 3 -82 -8 -3 -6 -11 4 -29 30 -46 30
-64 3 -79 -36 -19 -31 -30 15 -30 28 0 40 -4 40 -14 0 -9 -7 -12 -20 -9 -11 3
-20 0 -20 -6 0 -6 -8 -11 -19 -11 -46 0 -90 -77 -60 -107 8 -8 7 -17 -5 -35
l-17 -23 6 26 c4 15 2 30 -4 33 -6 4 -11 1 -11 -6 0 -8 -5 -6 -11 5 -6 10 -8
24 -5 32 6 16 0 14 -97 -35 -61 -31 -67 -37 -62 -59 6 -21 4 -23 -10 -11 -21
18 -30 6 -10 -14 14 -13 14 -16 2 -16 -8 0 -20 7 -27 15 -14 17 -39 13 -117
-17 -48 -18 -72 -48 -40 -48 7 0 21 -16 30 -35 19 -40 22 -59 7 -50 -5 3 -10
15 -10 26 0 24 -15 25 -24 1 -3 -9 -12 -27 -19 -39 -13 -21 -14 -20 -28 28 -9
27 -12 49 -7 49 4 0 8 -8 8 -17 0 -9 3 -13 7 -9 10 10 11 46 1 40 -4 -3 -8 0
-8 5 0 15 -17 14 -67 -5 -47 -18 -56 -34 -20 -34 17 0 25 -9 35 -41 9 -31 10
-45 2 -55 -7 -7 -9 -18 -6 -23 4 -5 2 -12 -3 -15 -5 -3 -11 1 -15 9 -3 8 -13
15 -23 15 -10 0 -40 21 -68 45 -43 40 -54 45 -84 41 -45 -7 -63 -25 -33 -33
15 -3 21 -11 18 -22 -2 -9 -7 -31 -11 -48 -4 -18 -14 -37 -22 -42 -28 -15 -4
-32 35 -25 50 9 62 22 38 40 -11 8 -18 14 -15 14 2 0 19 4 37 9 20 6 32 6 32
0 0 -5 -8 -9 -17 -9 -15 0 -16 -2 -3 -10 23 -14 110 -4 160 19 25 11 50 21 57
21 7 0 17 9 23 20 6 11 7 20 3 19 -20 -3 -24 2 -13 16 18 21 27 19 32 -9 6
-29 -24 -58 -67 -67 l-30 -5 38 -8 c30 -7 42 -5 57 9 17 16 20 16 20 2 0 -8
-6 -18 -12 -20 -10 -4 -10 -6 0 -6 8 -1 12 -24 12 -81 l0 -80 40 0 40 0 0 -40
0 -40 -40 0 c-40 0 -40 0 -40 -39 0 -23 -5 -41 -12 -44 -7 -2 -5 -3 4 -2 10 2
20 0 23 -4 2 -4 19 -6 37 -3 26 3 31 2 21 -8 -6 -7 -9 -19 -6 -26 6 -17 1 -17
-29 -3 -18 8 -35 6 -68 -6 -25 -9 -62 -21 -82 -26 -20 -5 -52 -15 -70 -23 -78
-34 -149 -58 -154 -53 -4 3 3 19 15 35 12 17 21 35 21 41 0 24 -21 8 -61 -44
-23 -30 -46 -55 -51 -55 -5 0 -8 -8 -7 -18 3 -19 -20 -73 -36 -84 -13 -10 -55
-10 -53 0 7 35 -38 52 -87 33 -16 -7 -48 0 -73 15 -2 1 7 20 19 43 31 61 15
63 -18 2 -30 -54 -64 -72 -102 -52 -26 15 -48 14 -48 -1 0 -7 -4 -22 -9 -33
-7 -19 -7 -19 13 -3 23 21 93 25 93 6 0 -7 -7 -22 -15 -32 -19 -25 -19 -36 0
-36 8 0 17 12 20 27 9 43 20 58 44 61 29 5 49 -13 53 -46 2 -21 8 -26 23 -24
37 6 140 13 178 12 35 0 97 26 97 41 0 4 17 3 37 -2 32 -7 45 -4 80 17 28 16
44 21 49 13 4 -7 21 -9 44 -5 26 4 40 2 43 -7 4 -8 6 -6 6 4 1 9 15 27 31 41
25 21 28 27 15 32 -9 3 -34 -4 -55 -16 -43 -25 -61 -19 -41 14 16 25 1 44 -26
33 -10 -5 -21 -7 -26 -7 -4 1 -6 -2 -5 -6 5 -13 -46 -82 -59 -82 -15 0 -16 9
-3 30 15 23 -7 42 -34 28 -25 -13 -56 -44 -56 -56 0 -10 -55 -52 -69 -52 -20
0 -21 19 -4 54 19 37 72 67 143 80 19 4 44 11 55 15 11 5 49 17 85 26 36 9 74
21 85 25 35 15 102 22 85 10 -13 -9 -13 -12 3 -24 10 -8 17 -27 17 -46 0 -23
8 -38 26 -52 19 -15 25 -28 21 -45 -5 -29 14 -26 28 5 16 36 25 25 25 -28 0
-27 -4 -50 -10 -50 -5 0 -10 -15 -10 -34 0 -19 -6 -37 -12 -39 -7 -3 -3 -6 10
-6 19 -1 22 -6 22 -41 0 -22 5 -40 10 -40 6 0 10 -17 10 -39 0 -35 -4 -41 -36
-56 -39 -18 -41 -38 -3 -43 30 -4 50 -22 25 -22 -9 0 -24 -6 -32 -14 -11 -12
-12 -18 -1 -39 11 -20 15 -22 23 -11 6 10 13 11 24 4 13 -9 13 -11 0 -20 -13
-9 -13 -10 0 -10 27 -1 -53 -31 -150 -56 -347 -90 -672 -106 -1120 -55 -64 8
-86 7 -92 -2 -13 -21 -9 -27 22 -27 17 0 30 5 30 10 0 11 42 13 78 4 37 -10
25 -25 -16 -18 l-37 6 3 -46 c3 -37 8 -46 23 -46 12 0 19 -7 19 -20 0 -17 -7
-20 -40 -20 -29 0 -40 -4 -40 -15 0 -11 -11 -15 -40 -15 -29 0 -40 4 -40 15 0
12 -16 15 -80 15 -72 0 -80 2 -80 19 0 15 -9 20 -40 23 -31 3 -40 0 -40 -12 0
-9 -5 -21 -11 -27 -8 -8 -8 -13 0 -17 6 -4 11 -15 11 -24 0 -12 -7 -9 -25 13
-14 17 -23 38 -21 48 4 15 0 18 -15 14 -13 -4 -22 0 -26 11 -4 9 -20 37 -37
62 -17 25 -48 79 -68 120 -21 41 -42 82 -47 90 -19 28 -69 148 -82 195 -37
139 -52 185 -93 290 -26 66 -55 140 -65 165 -35 84 -43 105 -78 190 -46 116
-115 260 -125 260 -16 0 -80 -71 -75 -84 4 -9 -4 -16 -21 -19 -32 -7 -65 -33
-137 -105 -29 -28 -55 -52 -58 -52 -14 0 -67 -63 -67 -80 0 -12 -14 -23 -40
-34 -22 -9 -40 -23 -40 -31 0 -8 -6 -15 -14 -15 -7 0 -19 -7 -26 -15 -7 -8
-21 -15 -31 -15 -10 0 -34 -16 -53 -35 -49 -49 -77 -53 -127 -21 -22 15 -44
39 -50 54 -36 98 -66 130 -105 115 -27 -10 -12 -164 18 -184 9 -6 -13 -59 -25
-59 -5 0 -15 7 -23 15 -20 19 -44 19 -44 0 0 -11 -11 -15 -40 -15 -27 0 -40 4
-40 14 0 14 -63 31 -79 22 -5 -3 -11 1 -15 9 -3 8 -11 13 -18 10 -23 -8 -92
49 -145 120 -54 71 -113 181 -113 209 0 9 -4 16 -9 16 -5 0 -12 19 -16 42 -11
69 -67 227 -122 348 -17 36 -34 76 -38 90 -4 14 -11 30 -16 36 -5 6 -23 44
-39 85 -43 104 -58 110 -139 54 -28 -19 -75 -48 -105 -65 -83 -44 -101 -54
-106 -61 -3 -3 -21 -11 -40 -19 -19 -8 -48 -22 -65 -32 -16 -10 -47 -26 -67
-34 -23 -11 -35 -21 -31 -30 3 -9 -2 -14 -16 -14 -18 0 -21 -6 -21 -40 0 -29
4 -40 15 -40 12 0 12 -5 -3 -34 -9 -18 -22 -31 -28 -29 -7 2 -15 0 -19 -6 -3
-7 2 -11 14 -11 12 0 21 -4 21 -10 0 -5 -7 -10 -16 -10 -19 0 -44 -24 -44 -43
0 -11 -16 -16 -61 -19 -78 -6 -119 1 -119 18 0 8 -9 14 -20 14 -11 0 -23 7
-26 15 -4 8 -11 15 -16 15 -20 0 -98 85 -98 106 0 12 -6 24 -13 27 -7 2 -24
29 -38 58 -37 77 -111 240 -120 264 -4 11 -19 52 -34 90 -15 39 -35 95 -45
125 -18 54 -39 107 -65 165 -7 17 -25 62 -40 100 -97 258 -180 459 -295 710
-10 22 -35 81 -55 130 -21 50 -45 108 -55 130 -10 22 -26 60 -37 85 -11 25
-29 70 -41 100 -12 30 -38 98 -58 150 -20 52 -45 115 -56 139 -11 24 -35 87
-55 140 -97 269 -160 434 -188 496 -43 96 -62 155 -100 320 -15 65 -85 195
-105 195 -17 0 -20 34 -4 52 17 17 16 21 -4 57 -46 81 -52 97 -53 141 -2 69
-11 95 -46 134 -29 31 -38 35 -85 35 -47 0 -165 -13 -225 -25 l-23 -4 0 -1614
0 -1613 23 -10 c14 -7 28 -28 38 -60 19 -58 8 -91 -35 -111 l-26 -12 0 -1160
0 -1160 3600 0 3600 0 -2 3424 c-3 3175 -4 3425 -20 3442 -9 11 -19 42 -23 69
-4 28 -16 64 -26 81 -11 17 -19 44 -19 60 0 16 -12 47 -25 69 -14 22 -25 54
-25 70 0 17 -11 53 -25 80 -13 28 -25 65 -25 83 0 18 -9 45 -21 61 -11 15 -23
48 -26 72 -3 24 -14 55 -24 68 -11 13 -19 38 -19 56 0 18 -11 53 -25 79 -14
26 -25 59 -25 74 0 15 -11 48 -25 74 -14 26 -25 59 -25 73 0 14 -11 47 -25 73
-14 26 -25 61 -25 78 0 17 -9 43 -21 57 -11 15 -24 48 -28 74 -4 27 -17 64
-29 83 -12 19 -22 47 -22 62 0 14 -11 49 -25 76 -14 28 -25 62 -25 77 0 15 -9
40 -21 56 -12 17 -24 49 -27 72 -3 23 -16 62 -29 86 -12 24 -23 55 -23 68 0
13 -11 45 -25 71 -14 26 -25 57 -25 70 0 13 -11 44 -25 70 -14 26 -25 60 -25
75 0 16 -9 42 -21 58 -11 16 -28 57 -39 91 -10 35 -27 88 -39 118 -12 30 -21
69 -21 86 0 17 -7 53 -15 80 -8 27 -12 57 -9 67 5 16 -61 17 -1295 17 l-1301
0 0 -53z m2354 -473 c5 -12 14 -15 36 -10 36 7 39 -1 5 -14 -31 -12 -52 -4
-58 21 -6 23 8 26 17 3z m-1246 -153 c26 -16 41 -61 36 -104 -8 -53 -19 -67
-54 -67 -24 0 -30 6 -44 47 -9 26 -16 59 -16 74 0 46 42 73 78 50z m178 -76
c17 -42 18 -77 2 -93 -14 -14 -48 -16 -48 -3 0 5 -16 26 -35 47 -43 46 -44 58
-2 72 55 17 67 14 83 -23z m1234 -10 c49 -31 52 -195 3 -195 -26 0 -83 128
-83 185 0 32 1 33 34 25 18 -4 39 -11 46 -15z m-702 -291 c29 -20 46 -52 48
-94 5 -65 13 -116 23 -143 13 -34 -2 -77 -27 -77 -13 0 -18 9 -20 31 -4 46 -4
47 -45 90 -28 30 -36 46 -31 61 6 19 3 20 -23 15 -33 -6 -59 5 -49 22 4 6 12
9 17 6 5 -4 9 -1 9 4 0 6 -4 11 -9 11 -9 0 1 58 13 79 10 16 68 13 94 -5z
m277 -452 c14 -7 25 -19 25 -28 0 -11 6 -15 20 -11 41 11 6 -34 -37 -47 -54
-17 -96 62 -57 106 15 16 20 17 22 5 2 -8 14 -19 27 -25z m461 -529 c-7 -7
-26 7 -26 19 0 6 6 6 15 -2 9 -7 13 -15 11 -17z m414 -108 c6 -8 9 -19 6 -24
-4 -5 4 -17 16 -26 23 -16 23 -16 4 -30 -36 -27 -58 -15 -71 38 -13 49 16 77
45 42z m-470 -238 c0 -7 14 -23 30 -35 28 -21 42 -62 20 -62 -5 0 -9 -18 -8
-40 2 -65 -36 -90 -80 -52 -11 10 -24 30 -27 45 -4 15 -11 30 -16 33 -22 13
-4 97 25 116 18 13 56 9 56 -5z m804 -61 c4 -15 15 -27 29 -29 15 -4 13 -5 -7
-4 -23 2 -31 8 -37 30 -4 15 -4 27 1 27 4 0 11 -11 14 -24z m-1830 -21 c-4 -8
-10 -12 -15 -9 -11 6 -2 24 11 24 5 0 7 -7 4 -15z m1145 -267 c17 -17 33 -41
37 -52 3 -12 12 -35 20 -53 11 -23 12 -38 4 -58 -7 -19 -7 -31 1 -41 6 -7 8
-17 5 -22 -3 -5 3 -17 13 -27 23 -20 22 -50 -3 -87 -19 -29 -49 -37 -63 -15
-4 6 -8 35 -8 62 0 50 -51 189 -82 226 -13 16 -18 81 -6 92 15 16 53 5 82 -25z
m-990 -239 c10 -22 10 -34 3 -41 -12 -12 -15 -7 -26 45 -8 36 6 34 23 -4z
m1457 5 c23 -16 26 -16 38 1 12 16 17 17 45 6 26 -11 31 -19 31 -47 0 -31 -3
-34 -31 -34 -17 0 -28 -4 -24 -10 8 -13 -59 -40 -84 -33 -12 3 -21 1 -21 -4 0
-13 -103 -63 -142 -69 -26 -5 -39 0 -61 20 -38 35 -34 59 19 112 48 49 103 70
155 59 15 -3 30 -1 34 4 8 14 11 14 41 -5z m-1376 -178 c0 -2 -7 -9 -15 -16
-12 -10 -15 -10 -15 4 0 9 7 16 15 16 8 0 15 -2 15 -4z m-40 -29 c0 -8 -3 -17
-7 -20 -9 -9 -34 13 -27 24 8 14 34 11 34 -4z m44 -41 c-9 -24 -34 -28 -34 -6
0 13 7 20 20 20 13 0 17 -5 14 -14z m146 -415 c0 -6 -4 -13 -10 -16 -5 -3 -10
1 -10 9 0 9 5 16 10 16 6 0 10 -4 10 -9z m35 -201 c4 -6 -5 -10 -20 -10 -15 0
-24 4 -20 10 3 6 12 10 20 10 8 0 17 -4 20 -10z m1338 -77 c42 -44 65 -81 71
-114 4 -21 13 -42 21 -49 10 -8 14 -30 12 -71 -1 -35 3 -63 9 -67 6 -4 14 -18
17 -32 25 -112 60 -227 71 -235 14 -11 10 -131 -5 -141 -13 -8 8 -45 42 -74
26 -23 28 -27 16 -50 -7 -14 -27 -28 -46 -34 -30 -8 -36 -7 -52 13 -11 13 -19
33 -19 46 0 12 -7 28 -16 36 -8 7 -13 21 -11 31 3 11 -4 24 -20 36 -21 15 -26
30 -35 102 -5 47 -14 89 -19 94 -5 6 -9 16 -9 23 0 8 -9 33 -20 55 -11 23 -20
52 -20 64 0 36 -30 96 -51 101 -10 3 -19 10 -19 16 0 6 -8 19 -17 29 -14 16
-15 23 -5 38 7 11 12 51 12 90 0 57 4 74 20 90 25 25 51 26 73 3z m-6781 -688
c-3 -5 -9 1 -13 15 -10 35 -11 95 -1 104 9 9 22 -105 14 -119z m5678 76 c-5
-11 -15 -22 -22 -25 -10 -5 -10 -7 -1 -12 7 -3 9 -12 7 -19 -4 -9 3 -16 20
-21 39 -10 31 -24 -14 -24 -38 0 -40 1 -41 33 -1 17 -3 24 -6 14 -4 -14 -8
-16 -19 -6 -19 16 -18 27 5 34 10 3 29 14 41 25 29 25 44 26 30 1z m10 -131
c0 -5 -6 -10 -14 -10 -8 0 -18 5 -21 10 -3 6 3 10 14 10 12 0 21 -4 21 -10z
m255 -320 c3 -6 -1 -7 -9 -4 -18 7 -21 14 -7 14 6 0 13 -4 16 -10z m-45 -4 c0
-2 -7 -6 -15 -10 -8 -3 -15 -1 -15 4 0 6 7 10 15 10 8 0 15 -2 15 -4z m-23
-78 c-3 -8 -6 -5 -6 6 -1 11 2 17 5 13 3 -3 4 -12 1 -19z m21 -36 c2 -7 -2
-10 -12 -6 -9 3 -16 11 -16 16 0 13 23 5 28 -10z m32 -77 c0 -8 -4 -15 -10
-15 -5 0 -10 7 -10 15 0 8 5 15 10 15 6 0 10 -7 10 -15z m-33 -31 c-3 -3 -12
-4 -19 -1 -8 3 -5 6 6 6 11 1 17 -2 13 -5z m117 -124 c3 -11 9 -29 12 -40 3
-11 2 -20 -3 -20 -13 0 -45 59 -38 70 10 16 23 12 29 -10z m134 -250 c2 -14
10 -28 17 -32 21 -12 57 -89 50 -107 -6 -14 -8 -14 -20 3 -8 10 -12 24 -8 30
3 6 -2 3 -13 -6 -10 -10 -18 -30 -19 -45 0 -21 -5 -28 -20 -28 -15 0 -20 8
-23 35 -3 34 -5 141 -3 168 2 24 36 8 39 -18z m-6044 -105 c21 -4 23 -10 24
-59 0 -30 -5 -62 -12 -70 -17 -22 -86 -26 -86 -4 0 6 -10 22 -21 34 -20 21
-21 26 -8 56 19 46 31 57 57 52 12 -2 33 -6 46 -9z m6065 -334 c7 -5 12 -14
10 -20 -3 -7 -11 -3 -21 9 -18 21 -13 26 11 11z m-49 -55 c0 -8 -5 -18 -12
-22 -7 -5 -8 -3 -3 6 4 7 2 16 -6 21 -11 7 -10 9 4 9 9 0 17 -6 17 -14z m20
-69 c0 -10 -4 -15 -10 -12 -5 3 -10 18 -10 33 0 21 2 24 10 12 5 -8 10 -23 10
-33z m-140 23 c-19 -13 -30 -13 -30 0 0 6 10 10 23 10 18 0 19 -2 7 -10z m29
-96 c-12 -14 -14 -14 -26 2 -16 22 -17 42 -1 26 17 -17 28 -15 29 6 1 16 2 16
6 -1 3 -10 -1 -25 -8 -33z m851 -1304 c-29 -8 -40 -3 -21 10 8 4 21 5 30 2 12
-5 10 -8 -9 -12z m0 -70 c-8 -6 -26 -10 -40 -9 -22 0 -20 2 10 13 38 13 54 11
30 -4z m-155 -11 c4 -6 14 -8 24 -5 14 5 14 5 1 -6 -9 -7 -14 -22 -12 -33 5
-26 -10 -10 -26 28 -11 26 -1 39 13 16z m-45 -18 c0 -6 -4 -13 -10 -16 -5 -3
-10 1 -10 9 0 9 5 16 10 16 6 0 10 -4 10 -9z m127 -43 c-3 -8 -6 -5 -6 6 -1
11 2 17 5 13 3 -3 4 -12 1 -19z m-178 -30 c5 -13 6 -27 3 -32 -6 -10 -20 19
-21 42 -1 20 9 14 18 -10z m76 16 c13 -5 14 -8 3 -15 -19 -12 -25 -11 -25 6 0
17 0 17 22 9z m-200 -23 c3 -6 -3 -15 -14 -20 -25 -14 -41 -14 -41 -1 0 6 7
10 15 10 8 0 15 5 15 10 0 13 17 13 25 1z m82 -47 c-3 -3 -12 -4 -19 -1 -8 3
-5 6 6 6 11 1 17 -2 13 -5z m-92 -34 c3 -5 2 -10 -4 -10 -5 0 -13 5 -16 10 -3
6 -2 10 4 10 5 0 13 -4 16 -10z m-361 -79 c3 -5 -1 -11 -9 -15 -9 -3 -15 0
-15 9 0 16 16 20 24 6z m-2646 -603 c-3 -7 -11 -13 -18 -13 -7 0 -15 6 -17 13
-3 7 4 12 17 12 13 0 20 -5 18 -12z m62 -4 c0 -8 -4 -12 -10 -9 -5 3 -10 10
-10 16 0 5 5 9 10 9 6 0 10 -7 10 -16z m2344 -49 c7 -19 -49 -51 -60 -33 -4 6
3 19 16 30 27 22 36 23 44 3z m796 -339 c0 -3 -4 -8 -10 -11 -5 -3 -10 -1 -10
4 0 6 5 11 10 11 6 0 10 -2 10 -4z m73 -43 c-7 -2 -19 -2 -25 0 -7 3 -2 5 12
5 14 0 19 -2 13 -5z m-8 -23 c-3 -5 -15 -10 -26 -10 -10 0 -19 5 -19 10 0 6
12 10 26 10 14 0 23 -4 19 -10z m34 -14 c-10 -10 -119 -44 -119 -37 0 9 78 39
104 40 11 1 17 -1 15 -3z m-1751 -367 c-11 -6 -15 -16 -11 -27 4 -13 3 -14 -6
-6 -15 14 -3 44 18 44 14 -1 14 -2 -1 -11z"/>
<path d="M5758 8038 c5 -5 16 -8 23 -6 8 3 3 7 -10 11 -17 4 -21 3 -13 -5z"/>
<path d="M6270 3960 c0 -11 5 -20 10 -20 6 0 10 9 10 20 0 11 -4 20 -10 20 -5
0 -10 -9 -10 -20z"/>
<path d="M7010 9323 c0 -42 5 -64 15 -73 8 -7 15 -21 15 -31 0 -11 5 -19 10
-19 6 0 10 -11 10 -24 0 -14 4 -27 9 -30 4 -3 11 -25 15 -48 3 -24 13 -56 21
-73 14 -31 17 -39 44 -115 10 -27 23 -46 34 -48 14 -3 17 4 17 49 0 39 -7 65
-29 104 -16 28 -32 72 -34 96 -5 45 -16 80 -27 89 -3 3 -18 35 -34 72 -15 37
-36 77 -47 89 l-19 22 0 -60z"/>
<path d="M1 6133 c-1 -310 -10 -286 93 -252 46 15 67 28 75 46 15 32 14 49 -2
65 -8 7 -20 30 -26 51 -7 20 -16 37 -21 37 -4 0 -11 18 -15 40 -4 22 -11 40
-16 40 -5 0 -9 5 -9 12 0 6 -13 45 -29 87 -16 42 -34 92 -39 111 -7 26 -10
-38 -11 -237z"/>
<path d="M5280 6330 c0 -5 9 -10 21 -10 11 0 17 5 14 10 -3 6 -13 10 -21 10
-8 0 -14 -4 -14 -10z"/>
<path d="M5326 6225 c-4 -10 1 -15 14 -15 11 0 20 7 20 15 0 8 -6 15 -14 15
-8 0 -16 -7 -20 -15z"/>
<path d="M645 5921 c-7 -12 33 -121 45 -121 4 0 11 18 15 39 5 29 2 46 -10 65
-18 26 -39 34 -50 17z"/>
<path d="M5308 5353 c7 -3 16 -2 19 1 4 3 -2 6 -13 5 -11 0 -14 -3 -6 -6z"/>
<path d="M5388 5323 c6 -2 18 -2 25 0 6 3 1 5 -13 5 -14 0 -19 -2 -12 -5z"/>
<path d="M5454 5317 c17 -12 17 -18 7 -50 -7 -21 -20 -44 -28 -53 -19 -19 -11
-28 16 -19 12 3 21 15 21 26 0 11 11 37 25 59 14 22 25 42 25 45 0 3 -19 5
-42 5 -37 0 -40 -1 -24 -13z"/>
<path d="M5698 5273 c6 -2 18 -2 25 0 6 3 1 5 -13 5 -14 0 -19 -2 -12 -5z"/>
<path d="M5871 4671 c-9 -6 -10 -11 -2 -15 14 -9 51 2 51 15 0 11 -30 12 -49
0z"/>
<path d="M5885 4490 c-4 -6 3 -10 14 -10 25 0 27 6 6 13 -8 4 -17 2 -20 -3z"/>
<path d="M5977 4304 c-8 -8 1 -24 14 -24 5 0 9 7 9 15 0 15 -12 20 -23 9z"/>
<path d="M5928 4273 c7 -3 16 -2 19 1 4 3 -2 6 -13 5 -11 0 -14 -3 -6 -6z"/>
<path d="M5975 4240 c-17 -7 -17 -9 -3 -9 10 -1 20 -12 24 -26 7 -29 24 -34
24 -7 0 30 -22 51 -45 42z"/>
<path d="M5926 4224 c-9 -24 -2 -26 12 -4 7 11 8 20 3 20 -5 0 -12 -7 -15 -16z"/>
<path d="M5880 4200 c0 -5 5 -10 11 -10 5 0 7 5 4 10 -3 6 -8 10 -11 10 -2 0
-4 -4 -4 -10z"/>
<path d="M5910 4153 c0 -7 4 -13 9 -13 5 0 11 6 14 13 3 8 -1 14 -9 14 -8 0
-14 -6 -14 -14z"/>
<path d="M5817 4120 c6 -23 24 -22 31 1 3 11 2 11 -7 -1 -9 -13 -11 -13 -11 3
0 9 -4 17 -9 17 -5 0 -7 -9 -4 -20z"/>
<path d="M5981 4121 c-10 -6 -10 -10 -1 -16 13 -8 24 -1 19 14 -3 6 -10 7 -18
2z"/>
<path d="M3956 4011 c-2 -3 5 -30 17 -58 14 -38 25 -53 38 -53 11 0 19 5 19
10 0 6 -6 10 -14 10 -18 0 -28 27 -13 34 8 3 6 9 -6 16 -11 7 -16 18 -12 29 3
12 0 18 -10 18 -9 0 -17 -3 -19 -6z"/>
<path d="M4010 4001 c0 -11 12 -29 27 -41 22 -17 24 -23 13 -30 -12 -8 -12
-10 2 -15 19 -7 38 1 38 16 0 6 -15 23 -32 40 -18 16 -27 29 -20 29 6 0 12 5
12 10 0 6 -9 10 -20 10 -13 0 -20 -7 -20 -19z"/>
<path d="M3920 3990 c0 -23 0 -23 -15 -4 -18 23 -19 14 -3 -40 13 -47 34 -76
24 -33 -8 32 8 36 24 6 19 -35 22 -14 4 32 -22 56 -34 70 -34 39z"/>
<path d="M3810 3997 c0 -2 9 -22 20 -45 11 -22 20 -46 20 -52 0 -5 5 -10 10
-10 13 0 12 10 -5 40 -8 14 -14 35 -15 48 0 13 -6 22 -15 22 -8 0 -15 -1 -15
-3z"/>
<path d="M3856 3978 c14 -45 35 -90 40 -85 8 7 -29 107 -39 107 -5 0 -5 -10
-1 -22z"/>
<path d="M6020 3986 c0 -9 5 -16 10 -16 6 0 10 4 10 9 0 6 -4 13 -10 16 -5 3
-10 -1 -10 -9z"/>
<path d="M3767 3958 c6 -30 18 -47 35 -48 3 0 -1 18 -9 40 -19 48 -35 53 -26
8z"/>
<path d="M6050 3935 c0 -8 7 -15 15 -15 9 0 12 6 9 15 -4 8 -10 15 -15 15 -5
0 -9 -7 -9 -15z"/>
<path d="M3710 3676 c0 -2 7 -22 15 -45 8 -22 12 -41 10 -41 -19 0 -35 16 -35
36 0 26 -18 32 -38 12 -18 -18 -15 -34 13 -64 14 -15 25 -33 25 -40 0 -19 27
-17 34 2 4 9 13 14 21 10 10 -3 15 1 15 13 0 25 -41 121 -51 121 -5 0 -9 -2
-9 -4z"/>
<path d="M2190 3563 c-34 -33 -34 -35 -15 -49 11 -8 37 -17 57 -21 29 -4 40
-11 44 -29 3 -13 10 -24 14 -24 9 0 21 -32 29 -80 6 -35 6 -35 19 -12 12 20
11 26 -3 43 -10 10 -15 27 -12 38 3 14 1 18 -9 14 -10 -4 -14 4 -15 28 -3 129
-40 160 -109 92z"/>
<path d="M3600 3591 c0 -6 4 -12 9 -15 4 -3 6 -17 4 -31 -6 -29 -20 -24 -36
13 l-11 27 -4 -28 c-2 -20 3 -34 19 -48 27 -23 32 -24 52 -1 15 17 15 21 -1
55 -16 34 -32 48 -32 28z"/>
<path d="M3480 3554 c0 -27 23 -94 32 -94 13 0 9 73 -6 93 -17 21 -26 22 -26
1z"/>
<path d="M3420 3509 c0 -6 -8 -8 -19 -4 -29 9 -32 -6 -11 -50 11 -22 19 -32
20 -23 0 14 6 16 30 12 35 -7 38 2 15 46 -15 30 -35 40 -35 19z"/>
<path d="M5909 3469 c-34 -34 0 -93 62 -106 40 -8 47 -33 10 -33 -16 0 -37 -3
-45 -6 -14 -5 -13 -9 6 -26 37 -32 108 -7 121 42 6 24 -26 54 -76 70 -45 14
-44 36 1 32 22 -2 32 1 32 10 0 41 -76 52 -111 17z"/>
<path d="M3320 3478 c0 -3 7 -21 15 -39 16 -34 16 -34 10 -4 -6 26 -25 60 -25
43z"/>
<path d="M5825 3448 c-11 -6 -21 -12 -23 -13 -2 -1 6 -18 16 -36 28 -48 46
-109 35 -120 -15 -15 -29 5 -52 79 -12 39 -24 72 -26 72 -2 0 -16 -5 -30 -10
l-26 -10 19 -28 c11 -15 22 -43 26 -63 8 -45 41 -89 66 -89 31 0 68 21 74 42
5 20 -40 174 -53 182 -3 2 -15 0 -26 -6z"/>
<path d="M3204 3423 c6 -45 17 -63 37 -63 23 0 25 27 4 56 -8 12 -11 24 -8 28
3 3 -3 6 -15 6 -18 0 -21 -5 -18 -27z"/>
<path d="M5643 3387 c-48 -11 -50 -15 -28 -57 24 -46 46 -120 40 -130 -6 -10
7 -14 40 -10 28 3 29 4 6 49 -26 50 -26 49 7 53 42 5 35 33 -8 33 -25 0 -36 5
-38 18 -3 13 3 17 27 17 17 0 31 4 31 8 0 10 -22 32 -29 31 -4 -1 -25 -6 -48
-12z"/>
<path d="M3005 3379 c-11 -17 1 -21 15 -4 8 9 8 15 2 15 -6 0 -14 -5 -17 -11z"/>
<path d="M2927 3340 c3 -11 7 -20 9 -20 2 0 4 9 4 20 0 11 -4 20 -9 20 -5 0
-7 -9 -4 -20z"/>
<path d="M3142 3353 c-26 -5 -20 -23 9 -23 10 0 19 7 19 15 0 8 -1 14 -2 14
-2 -1 -13 -4 -26 -6z"/>
<path d="M5523 3354 c-9 -4 -7 -16 7 -44 31 -61 24 -68 -23 -22 -43 42 -87 56
-87 28 0 -8 4 -17 9 -21 5 -3 12 -19 16 -36 4 -17 13 -42 21 -57 8 -15 14 -35
14 -44 0 -13 8 -18 30 -18 17 0 30 1 30 3 0 1 -9 20 -20 42 -11 21 -18 41 -15
43 2 2 24 -12 48 -32 28 -23 50 -34 61 -30 19 7 20 16 5 31 -5 5 -21 44 -34
84 -22 70 -34 84 -62 73z"/>
<path d="M2350 3330 c0 -5 5 -10 11 -10 5 0 7 5 4 10 -3 6 -8 10 -11 10 -2 0
-4 -4 -4 -10z"/>
<path d="M2855 3315 c3 -8 7 -23 10 -32 4 -11 9 -13 16 -6 8 8 8 17 0 32 -13
24 -33 29 -26 6z"/>
<path d="M3060 3320 c0 -5 5 -10 10 -10 6 0 10 5 10 10 0 6 -4 10 -10 10 -5 0
-10 -4 -10 -10z"/>
<path d="M5352 3302 c-14 -2 -21 -9 -18 -15 34 -79 56 -135 56 -149 0 -13 8
-18 29 -18 l29 0 -23 58 c-12 31 -29 73 -36 92 -11 28 -19 34 -37 32z"/>
<path d="M5170 3263 c-51 -8 -54 -11 -37 -36 8 -13 24 -52 35 -88 15 -50 24
-65 41 -67 23 -4 27 9 11 39 -8 13 -7 19 0 19 6 0 16 -11 22 -25 10 -23 37
-33 51 -19 3 4 -5 21 -18 38 -19 25 -23 40 -19 68 5 28 2 39 -17 57 -12 11
-28 20 -33 20 -6 -1 -22 -4 -36 -6z m39 -42 c9 -6 11 -16 7 -27 -7 -18 -8 -18
-22 0 -23 32 -16 46 15 27z"/>
<path d="M5043 3228 c61 -146 64 -157 32 -145 -16 7 -21 18 -51 100 -12 34
-22 47 -33 45 -20 -5 -18 -17 10 -93 32 -83 56 -103 103 -85 35 13 36 29 8
113 -23 68 -29 77 -50 77 -15 0 -22 -4 -19 -12z"/>
<path d="M4853 3200 c-19 -8 -23 -17 -23 -50 0 -73 45 -130 102 -130 68 0 63
114 -8 169 -29 23 -38 24 -71 11z m66 -56 c22 -28 28 -78 10 -89 -15 -10 -57
33 -64 66 -12 53 20 67 54 23z"/>
<path d="M4703 3183 c-24 -5 -30 -22 -14 -38 5 -6 19 -39 32 -73 20 -57 41
-83 55 -70 2 3 -3 21 -11 41 -15 36 -14 36 13 49 20 10 26 19 24 38 -6 43 -45
64 -99 53z m67 -58 c0 -8 -7 -15 -15 -15 -16 0 -38 34 -28 43 9 10 43 -12 43
-28z"/>
<path d="M4584 3143 c3 -16 11 -56 17 -90 8 -41 16 -63 25 -63 8 0 14 10 14
25 0 32 13 32 35 -1 12 -18 20 -23 27 -16 8 8 -2 32 -31 81 -22 38 -41 74 -41
80 0 6 -12 11 -26 11 -23 0 -25 -3 -20 -27z m59 -64 c3 -13 1 -19 -6 -16 -15
5 -22 37 -9 37 5 0 12 -9 15 -21z"/>
<path d="M4437 3154 c-4 -4 4 -26 17 -48 13 -23 34 -60 46 -83 15 -29 29 -43
42 -43 16 0 19 5 15 23 -4 12 -9 42 -12 67 -11 78 -15 90 -31 90 -13 0 -15 -6
-10 -27 3 -16 8 -44 11 -63 5 -31 2 -28 -25 25 -30 60 -40 71 -53 59z"/>
<path d="M2521 2860 c-13 -11 -33 -20 -46 -20 -30 0 -41 -29 -18 -46 15 -10
19 -10 21 1 3 14 33 25 70 25 22 0 27 14 16 44 -8 20 -14 20 -43 -4z"/>
<path d="M4050 2773 c0 -13 5 -23 10 -23 13 0 13 11 0 30 -8 12 -10 11 -10 -7z"/>
<path d="M3975 2740 c-7 -11 2 -30 13 -30 4 0 14 5 22 10 13 9 13 11 0 20 -19
12 -27 12 -35 0z"/>
<path d="M3884 2696 c-8 -22 3 -33 18 -18 9 9 9 15 0 24 -9 9 -13 7 -18 -6z"/>
<path d="M4085 2633 c14 -68 16 -73 35 -73 26 0 26 30 -1 64 -24 30 -39 34
-34 9z"/>
<path d="M4024 2569 c3 -17 6 -35 6 -40 0 -5 7 -9 15 -9 18 0 19 17 3 53 -18
37 -32 34 -24 -4z"/>
<path d="M3906 2528 c-11 -36 -13 -58 -6 -58 5 0 12 5 15 10 3 6 19 10 36 10
35 0 37 12 4 34 -29 19 -44 20 -49 4z"/>
<path d="M3693 2443 c10 -9 67 -10 67 0 0 4 -16 7 -37 7 -20 0 -33 -3 -30 -7z"/>
<path d="M3695 2410 c-3 -5 1 -10 10 -10 9 0 13 5 10 10 -3 6 -8 10 -10 10 -2
0 -7 -4 -10 -10z"/>
<path d="M3745 2410 c-3 -5 -1 -10 4 -10 6 0 11 5 11 10 0 6 -2 10 -4 10 -3 0
-8 -4 -11 -10z"/>
<path d="M3480 2360 c0 -5 5 -10 11 -10 5 0 7 5 4 10 -3 6 -8 10 -11 10 -2 0
-4 -4 -4 -10z"/>
<path d="M3892 2298 c3 -7 13 -15 22 -16 12 -3 17 1 14 10 -3 7 -13 15 -22 16
-12 3 -17 -1 -14 -10z"/>
<path d="M6683 2253 c-7 -2 -13 -16 -13 -29 0 -13 -4 -24 -10 -24 -5 0 -10 7
-10 16 0 11 -6 14 -22 9 -24 -8 -45 -23 -37 -27 2 -2 18 -10 34 -19 22 -11 29
-22 27 -38 -2 -20 1 -22 20 -17 13 3 26 6 31 6 12 0 8 28 -5 32 -11 4 -8 19
17 81 7 17 -5 21 -32 10z"/>
<path d="M6535 2180 c-11 -5 -33 -13 -49 -19 -26 -11 -27 -13 -14 -29 23 -25
32 -62 17 -62 -9 0 -10 -3 -3 -10 7 -7 19 -8 37 -1 29 11 36 31 11 31 -8 0
-12 5 -9 10 4 7 12 7 25 0 24 -13 67 -13 75 0 3 5 -6 12 -20 16 -17 4 -25 13
-25 29 0 29 -20 45 -45 35z m15 -30 c0 -13 -28 -25 -38 -16 -3 4 0 11 8 16 20
13 30 12 30 0z"/>
<path d="M6890 2156 c0 -2 7 -9 15 -16 13 -11 14 -10 9 4 -5 14 -24 23 -24 12z"/>
<path d="M6357 2112 c-12 -2 -15 -10 -11 -27 3 -13 -1 -38 -9 -55 l-15 -30 30
0 c25 0 29 3 25 19 -3 13 1 21 13 24 13 3 17 0 13 -9 -7 -18 24 -18 57 1 24
13 24 14 5 21 -11 4 -36 19 -55 34 -19 14 -43 24 -53 22z m28 -42 c3 -5 1 -10
-4 -10 -6 0 -11 5 -11 10 0 6 2 10 4 10 3 0 8 -4 11 -10z"/>
<path d="M6185 2058 c-40 -14 -39 -13 -20 -41 9 -14 15 -36 13 -49 -2 -18 1
-22 17 -20 45 7 51 12 31 28 -11 7 -16 17 -13 21 4 4 13 1 19 -5 14 -14 78
-16 78 -3 0 5 -10 11 -22 13 -13 2 -22 9 -20 17 10 46 -21 61 -83 39z m50 -17
c3 -5 1 -13 -5 -16 -15 -9 -43 3 -35 15 8 13 32 13 40 1z"/>
<path d="M6043 2020 c-57 -24 -45 -100 17 -100 48 0 80 17 80 43 0 47 -50 77
-97 57z m53 -24 c15 -12 17 -18 8 -33 -16 -26 -50 -28 -63 -4 -8 15 -7 23 5
35 19 20 25 20 50 2z"/>
<path d="M5895 1983 c-46 -10 -49 -13 -30 -27 10 -7 18 -27 19 -44 1 -28 5
-32 29 -32 29 0 34 9 16 27 -7 7 -2 14 20 21 32 11 39 30 19 50 -12 12 -35 14
-73 5z m55 -23 c0 -5 -7 -10 -15 -10 -8 0 -18 0 -22 -1 -4 0 -9 4 -11 10 -2 6
8 11 22 11 14 0 26 -4 26 -10z"/>
<path d="M5770 1934 c-6 -14 -10 -30 -10 -35 0 -5 -12 2 -27 16 -15 14 -38 25
-51 25 -21 0 -22 -1 -7 -23 8 -12 16 -34 18 -47 3 -16 11 -26 25 -28 25 -4 29
10 7 28 -8 7 -15 17 -15 23 0 6 13 -1 28 -16 31 -30 42 -27 42 10 0 14 4 22
10 18 6 -4 8 -15 5 -26 -5 -16 -1 -19 24 -19 34 0 40 16 15 34 -9 7 -17 24
-17 39 -2 35 -34 36 -47 1z"/>
<path d="M5537 1923 c-17 -4 -17 -6 -2 -30 9 -14 14 -34 12 -45 -5 -19 -2 -20
49 -16 61 5 67 8 58 32 -8 21 -21 21 -27 -1 -2 -13 -8 -9 -19 17 -17 40 -14
53 6 25 10 -14 15 -15 21 -5 15 24 -42 38 -98 23z m43 -18 c0 -8 -4 -15 -10
-15 -5 0 -10 7 -10 15 0 8 5 15 10 15 6 0 10 -7 10 -15z m20 -45 c0 -5 -4 -10
-9 -10 -6 0 -13 5 -16 10 -3 6 1 10 9 10 9 0 16 -4 16 -10z"/>
<path d="M1880 1910 c0 -5 5 -10 10 -10 6 0 10 5 10 10 0 6 -4 10 -10 10 -5 0
-10 -4 -10 -10z"/>
<path d="M5460 1911 c0 -13 29 -35 37 -28 7 8 -15 37 -28 37 -5 0 -9 -4 -9 -9z"/>
<path d="M5325 1879 l7 -31 -41 28 c-23 15 -44 24 -47 21 -10 -10 19 -87 33
-87 10 0 11 5 3 19 -20 38 -9 42 30 11 23 -18 44 -30 47 -26 8 8 -18 96 -29
96 -5 0 -7 -13 -3 -31z"/>
<path d="M5380 1896 c0 -8 5 -18 10 -21 6 -3 10 1 10 9 0 38 35 -2 42 -49 4
-24 38 -34 38 -11 0 9 -4 16 -9 16 -4 0 -12 15 -17 33 -8 26 -15 33 -42 35
-23 2 -32 -1 -32 -12z"/>
<path d="M4995 1887 c-4 -10 -1 -27 9 -42 13 -20 25 -25 54 -24 38 1 36 3 -10
13 -20 5 -30 15 -36 39 -8 26 -11 29 -17 14z"/>
<path d="M5050 1885 c7 -8 16 -15 21 -15 5 0 6 7 3 15 -4 8 -13 15 -21 15 -13
0 -13 -3 -3 -15z"/>
<path d="M5117 1893 c-25 -25 10 -83 50 -83 55 0 66 21 32 64 -27 34 -34 28
-14 -10 19 -36 5 -53 -29 -35 -34 19 -40 50 -13 61 22 9 22 9 1 9 -11 1 -24
-2 -27 -6z"/>
<path d="M6503 1856 c3 -8 1 -17 -6 -19 -7 -2 -9 -8 -4 -12 8 -10 38 26 31 37
-9 14 -26 8 -21 -6z"/>
<path d="M6396 1764 c-4 -9 -4 -19 -1 -22 2 -3 7 3 11 12 4 9 4 19 1 22 -2 3
-7 -3 -11 -12z"/>
<path d="M5956 1751 c-4 -6 -24 -11 -45 -11 -50 0 -86 -28 -77 -58 8 -25 37
-36 93 -33 23 0 44 -3 48 -9 10 -16 -40 -22 -81 -11 -52 14 -53 14 -47 -9 7
-27 29 -43 45 -34 7 5 23 7 34 6 12 -2 38 4 59 12 29 12 36 20 33 38 -4 30
-42 48 -100 48 -27 0 -48 4 -48 9 0 15 60 18 87 4 35 -18 47 -4 24 31 -11 17
-21 24 -25 17z"/>
<path d="M4850 1707 c1 -6 7 -23 15 -37 8 -14 14 -34 15 -45 0 -16 10 -23 48
-32 56 -13 71 -4 48 31 -9 14 -16 32 -16 39 0 23 -35 47 -74 52 -25 3 -36 1
-36 -8z m63 -11 c20 -16 23 -36 4 -36 -17 0 -37 20 -37 37 0 16 10 16 33 -1z
m30 -64 c19 -21 13 -34 -11 -25 -18 7 -32 22 -32 36 0 14 27 7 43 -11z"/>
<path d="M5643 1700 c-50 -20 -32 -105 27 -130 59 -24 140 7 140 54 -1 62 -95
105 -167 76z m101 -33 c37 -36 21 -77 -29 -77 -26 0 -39 6 -51 25 -24 37 -11
65 32 65 20 0 41 -6 48 -13z"/>
<path d="M4305 1690 c-3 -5 -1 -10 4 -10 6 0 11 5 11 10 0 6 -2 10 -4 10 -3 0
-8 -4 -11 -10z"/>
<path d="M4990 1697 c0 -17 54 -109 72 -121 26 -18 74 -21 84 -5 4 6 1 36 -6
65 -11 47 -16 54 -37 54 -24 0 -24 0 -4 -21 22 -24 34 -70 21 -83 -16 -16 -56
10 -74 48 -9 20 -15 40 -12 45 3 5 -1 12 -10 15 -17 6 -34 8 -34 3z"/>
<path d="M5183 1678 c-2 -5 0 -8 5 -8 14 0 44 -84 37 -103 -5 -13 5 -16 62
-19 37 -2 72 -1 76 3 9 7 -12 59 -25 59 -4 0 -8 -9 -8 -20 0 -16 -7 -20 -30
-20 -19 0 -33 7 -40 20 -8 16 -8 20 4 20 7 0 17 -8 20 -17 5 -11 10 -13 17 -6
6 6 5 19 -5 38 -19 36 -13 44 15 19 21 -19 21 -19 18 6 -4 23 -9 25 -72 30
-38 3 -71 2 -74 -2z m82 -28 c0 -7 -6 -15 -12 -17 -8 -3 -13 4 -13 17 0 13 5
20 13 18 6 -3 12 -11 12 -18z"/>
<path d="M5501 1677 c18 -13 39 -50 39 -67 0 -6 -25 8 -55 30 -41 30 -64 40
-92 40 -36 0 -37 -1 -16 -15 24 -17 46 -74 38 -97 -5 -12 2 -17 27 -21 43 -6
47 -1 20 23 -12 12 -22 25 -22 30 0 4 -3 16 -6 24 -4 10 25 -5 67 -33 41 -27
77 -46 81 -43 4 4 -2 34 -14 66 -18 49 -19 59 -7 67 9 6 -1 9 -31 9 -37 -1
-42 -3 -29 -13z"/>
<path d="M6448 1683 c7 -3 16 -2 19 1 4 3 -2 6 -13 5 -11 0 -14 -3 -6 -6z"/>
<path d="M6191 1521 c-28 -7 -41 -31 -17 -31 16 0 42 -38 32 -47 -3 -3 -29 7
-58 22 -34 18 -66 28 -88 26 -46 -3 -48 -7 -17 -35 31 -29 44 -71 28 -90 -16
-19 -1 -26 42 -19 36 5 54 33 22 33 -14 0 -41 48 -32 56 2 2 34 -13 71 -32 85
-45 99 -38 72 37 -15 40 -16 53 -6 59 14 9 5 30 -13 29 -7 -1 -23 -4 -36 -8z"/>
<path d="M5931 1471 c-35 -6 -56 -31 -26 -31 23 0 51 -69 36 -92 -14 -23 -1
-30 48 -22 43 7 53 18 23 26 -24 7 -51 86 -33 98 13 7 7 31 -7 29 -4 -1 -22
-4 -41 -8z"/>
<path d="M5724 1443 c-53 -10 -51 -80 3 -123 23 -18 35 -21 73 -15 25 3 55 7
67 7 19 0 21 5 19 37 -2 35 -3 36 -36 33 -46 -5 -60 -19 -29 -31 l24 -9 -27
-7 c-40 -10 -77 2 -87 28 -19 50 37 76 87 41 29 -20 44 -10 30 20 -9 21 -17
24 -57 23 -25 0 -55 -2 -67 -4z"/>
<path d="M6470 1330 c0 -26 0 -26 45 -16 25 6 45 13 45 17 0 3 -20 10 -45 16
-45 10 -45 10 -45 -17z"/>
<path d="M5852 1235 c-11 -14 -27 -25 -36 -25 -9 0 -16 -4 -16 -9 0 -19 17
-20 37 -2 10 10 29 24 41 30 12 6 22 16 22 21 0 19 -29 10 -48 -15z"/>
<path d="M6585 1100 c4 -11 2 -20 -4 -20 -6 0 -11 7 -11 16 0 12 -6 15 -22 10
-13 -3 -27 -6 -31 -6 -5 0 -5 -10 -1 -22 6 -20 5 -21 -10 -9 -14 12 -16 11
-17 -5 0 -16 -2 -16 -9 4 -5 12 -15 22 -21 22 -7 0 -9 -9 -5 -22 3 -13 6 -32
7 -43 0 -11 3 -14 6 -7 2 6 9 9 15 6 5 -3 15 2 23 12 7 11 16 16 20 12 4 -3
21 -1 38 7 34 13 57 10 57 -7 0 -6 -6 -8 -14 -5 -8 3 -16 2 -18 -3 -2 -5 -41
-19 -88 -31 -47 -11 -94 -23 -105 -26 -122 -31 -301 -60 -428 -69 -45 -3 -91
-7 -102 -9 -11 -2 -56 -4 -99 -4 -44 -1 -76 -4 -73 -8 17 -16 376 5 524 31
122 22 350 75 386 89 17 8 38 12 45 9 7 -2 16 5 19 17 6 23 19 28 26 9 2 -7 8
-10 12 -6 12 11 -16 40 -29 30 -23 -18 -44 -20 -50 -5 -4 11 -2 14 9 10 8 -4
17 -2 20 4 10 15 -21 39 -50 39 -22 0 -25 -3 -20 -20z"/>
<path d="M6388 1065 c-3 -3 -3 -16 -1 -29 3 -16 11 -23 21 -21 10 2 23 4 30 4
6 1 12 8 12 16 0 18 -16 20 -23 3 -4 -8 -8 -4 -12 10 -7 21 -16 27 -27 17z"/>
<path d="M6349 1055 c-11 -10 3 -55 17 -55 8 0 14 6 14 13 0 17 -24 50 -31 42z"/>
<path d="M5685 1030 c-3 -5 -2 -10 4 -10 5 0 13 5 16 10 3 6 2 10 -4 10 -5 0
-13 -4 -16 -10z"/>
<path d="M6270 1032 c0 -5 9 -17 21 -28 17 -16 22 -16 29 -4 17 27 11 40 -20
40 -16 0 -30 -4 -30 -8z"/>
<path d="M6216 1021 c-11 -18 6 -41 30 -41 25 0 28 7 18 34 -7 17 -39 22 -48
7z"/>
<path d="M6170 1011 c0 -21 13 -41 26 -41 11 0 11 5 2 25 -11 24 -28 34 -28
16z"/>
<path d="M6105 988 c10 -31 10 -31 35 -23 30 10 21 39 -13 43 -26 3 -28 1 -22
-20z"/>
<path d="M6620 1002 c-22 -10 -23 -31 -1 -25 10 2 18 11 18 19 0 8 -1 14 -1
13 -1 0 -8 -3 -16 -7z"/>
<path d="M6000 976 c0 -24 4 -26 38 -25 20 0 31 3 25 6 -7 2 -13 11 -13 19 0
8 -4 14 -9 14 -5 0 -16 3 -25 6 -12 5 -16 0 -16 -20z"/>
<path d="M5932 968 c2 -17 11 -24 31 -26 30 -4 32 0 17 29 -15 28 -52 25 -48
-3z"/>
<path d="M5746 973 c-16 -16 -5 -40 19 -40 14 0 25 2 25 6 0 11 -38 40 -44 34z"/>
<path d="M5809 978 c-7 -25 -4 -38 12 -43 28 -9 41 3 26 25 -10 16 -35 28 -38
18z"/>
<path d="M5860 975 c0 -3 8 -14 17 -24 19 -23 33 -19 33 10 0 14 -7 19 -25 19
-14 0 -25 -2 -25 -5z"/>
<path d="M6518 973 c7 -3 16 -2 19 1 4 3 -2 6 -13 5 -11 0 -14 -3 -6 -6z"/>
<path d="M5657 949 c4 -13 14 -19 34 -19 45 0 34 34 -12 36 -21 1 -26 -2 -22
-17z"/>
<path d="M6655 681 c-6 -11 9 -23 19 -14 9 9 7 23 -3 23 -6 0 -12 -4 -16 -9z"/>
<path d="M6568 653 c7 -3 16 -2 19 1 4 3 -2 6 -13 5 -11 0 -14 -3 -6 -6z"/>
<path d="M6710 620 c-8 -5 -10 -10 -5 -10 6 0 17 5 25 10 8 5 11 10 5 10 -5 0
-17 -5 -25 -10z"/>
<path d="M5018 467 c12 -13 22 -30 22 -38 0 -11 10 -14 40 -11 55 6 55 32 1
32 -31 0 -41 4 -46 20 -3 11 -14 20 -22 20 -14 0 -13 -4 5 -23z"/>
<path d="M5433 440 c0 -25 2 -35 4 -22 2 12 2 32 0 45 -2 12 -4 2 -4 -23z"/>
</g>
</svg>
